<?xml version="1.0" encoding="UTF-8"?>
<svg xmlns="http://www.w3.org/2000/svg" xmlns:xlink="http://www.w3.org/1999/xlink" viewBox="0 0 50 50" width="50px" height="50px">
<g id="surface154687035">
<path style=" stroke:none;fill-rule:nonzero;fill:rgb(0%,0%,0%);fill-opacity:1;" d="M 38 20 C 38 24.222656 36.460938 28.085938 33.90625 31.0625 L 46.90625 44.09375 L 44.09375 46.90625 L 30.9375 33.78125 C 28.140625 35.804688 24.710938 37 21 37 C 11.621094 37 4 29.378906 4 20 C 4 10.621094 11.621094 3 21 3 C 30.378906 3 38 10.621094 38 20 Z M 6 20 C 6 28.296875 12.703125 35 21 35 C 29.296875 35 36 28.296875 36 20 C 36 11.703125 29.296875 5 21 5 C 12.703125 5 6 11.703125 6 20 Z M 6 20 "/>
<path style=" stroke:none;fill-rule:nonzero;fill:rgb(100%,100%,100%);fill-opacity:1;" d="M 54.332031 -0.117188 C 54.332031 0.484375 53.929688 0.882812 53.332031 0.882812 L 49.429688 0.882812 L 49.429688 4.785156 C 49.429688 5.382812 49.03125 5.785156 48.429688 5.785156 C 47.832031 5.785156 47.429688 5.382812 47.429688 4.785156 L 47.429688 0.882812 L 43.53125 0.882812 C 42.929688 0.882812 42.53125 0.484375 42.53125 -0.117188 C 42.53125 -0.714844 42.929688 -1.117188 43.53125 -1.117188 L 47.429688 -1.117188 L 47.429688 -5.015625 C 47.429688 -5.617188 47.832031 -6.015625 48.429688 -6.015625 C 49.03125 -6.015625 49.429688 -5.617188 49.429688 -5.015625 L 49.429688 -1.117188 L 53.332031 -1.117188 C 53.929688 -1.117188 54.332031 -0.714844 54.332031 -0.117188 Z M 58.429688 -0.117188 C 58.429688 5.382812 53.929688 9.882812 48.429688 9.882812 C 42.929688 9.882812 38.429688 5.382812 38.429688 -0.117188 C 38.429688 -5.617188 42.929688 -10.117188 48.429688 -10.117188 C 53.929688 -10.117188 58.429688 -5.617188 58.429688 -0.117188 Z M 56.429688 -0.117188 C 56.429688 -4.515625 52.832031 -8.117188 48.429688 -8.117188 C 44.03125 -8.117188 40.429688 -4.515625 40.429688 -0.117188 C 40.429688 4.285156 44.03125 7.882812 48.429688 7.882812 C 52.832031 7.882812 56.429688 4.285156 56.429688 -0.117188 Z M 56.429688 -0.117188 "/>
</g>
</svg>
